<svg id="visual" viewBox="0 0 900 600" width="900" height="600" xmlns="http://www.w3.org/2000/svg" xmlns:xlink="http://www.w3.org/1999/xlink" version="1.1"><rect x="0" y="0" width="900" height="600" fill="#000c21"></rect><defs><linearGradient id="grad1_0" x1="33.3%" y1="0%" x2="100%" y2="100%"><stop offset="20%" stop-color="#000c21" stop-opacity="1"></stop><stop offset="80%" stop-color="#000c21" stop-opacity="1"></stop></linearGradient></defs><defs><linearGradient id="grad2_0" x1="0%" y1="0%" x2="66.7%" y2="100%"><stop offset="20%" stop-color="#000c21" stop-opacity="1"></stop><stop offset="80%" stop-color="#000c21" stop-opacity="1"></stop></linearGradient></defs><g transform="translate(900, 0)"><path d="M0 486.7C-75.9 458.9 -151.9 431.1 -227.5 394C-303.1 357 -378.4 310.6 -421.5 243.4C-464.7 176.2 -475.7 88.1 -486.7 0L0 0Z" fill="#ffffff"></path></g><g transform="translate(0, 600)"><path d="M0 -486.7C62.9 -436.3 125.8 -385.9 203 -351.6C280.2 -317.3 371.9 -299.3 421.5 -243.4C471.2 -187.5 479 -93.7 486.7 0L0 0Z" fill="#ffffff"></path></g></svg>